<svg xmlns="http://www.w3.org/2000/svg" viewBox="0 0 200 200">
  <defs>
    <clipPath id="rounded">
      <rect width="200" height="200" rx="40" ry="40"/>
    </clipPath>
  </defs>
  <g clip-path="url(#rounded)">
    <rect width="200" height="200" fill="#D9D9D9"/>
    <path
      d="M115.59 161.379C109.628 163.422 103.609 164.37 97.5311 164.228C91.4534 164.088 85.6021 162.857 79.9772 160.539C74.3006 158.137 68.897 154.633 63.7661 150.023C62.6674 148.983 62.2832 148.003 62.6132 147.083C62.8917 146.077 63.6722 145.152 64.9549 144.31C65.9994 143.447 67.1067 142.865 68.2762 142.566C69.5388 142.233 73.6444 138.821 74.8881 139.911C78.7951 142.919 80.2889 147.938 83.8424 149.65C87.4888 151.332 90.7619 153.358 94.8931 153.459C98.9723 153.476 103.666 152.577 108.976 150.759C111.77 149.802 114.216 148.559 116.316 147.032C118.364 145.422 119.998 143.599 121.218 141.565C122.478 139.414 123.178 137.002 123.321 134.325C123.411 131.567 122.915 128.501 121.833 125.132C120.753 121.764 118.967 118.081 116.477 114.082L66.7707 44.4187L66.8222 43.8439L66.929 43.5493C68.7248 43.6908 68.245 38.5122 68.9584 37.6617C69.6198 36.7277 70.0467 37.3855 72.0957 36.6837C74.4385 40.5314 77.9476 37.2182 79.3352 37.4503C80.6709 37.5992 75.3135 37.3839 76.0396 38.5501L128.771 109.871C131.935 114.952 134.637 119.481 135.967 123.978C137.246 128.391 138.465 133.146 138.202 137.077C137.936 141.006 137.563 144.087 135.788 147.223C134.01 150.358 130.384 153.185 127.239 155.576C124.189 157.935 119.873 159.913 115.59 161.379Z"
      fill="#A30000"/>
    <path
      d="M89.3177 157.901C93.6061 159.619 97.9268 160.384 102.28 160.198C106.634 160.011 110.813 158.878 114.825 156.799C118.871 154.647 122.712 151.534 126.347 147.463C127.126 146.545 127.394 145.688 127.149 144.887C126.94 144.014 126.374 143.217 125.448 142.495C124.691 141.753 123.893 141.258 123.053 141.009C122.144 140.733 121.251 141.076 120.369 142.04C117.595 144.703 114.944 146.8 112.413 148.33C109.815 149.834 107.035 150.651 104.078 150.783C101.155 150.84 97.7837 150.103 93.9646 148.575C91.9544 147.77 90.1904 146.712 88.673 145.401C87.1918 144.018 86.0057 142.446 85.1148 140.686C84.1931 138.824 83.6701 136.728 83.5457 134.396C83.4575 131.991 83.7862 129.315 84.5317 126.367C85.2772 123.419 86.5245 120.19 88.2739 116.677L122.988 47.0005C123.499 45.9762 123.495 45.097 122.976 44.363C122.494 43.5555 121.515 42.8567 120.042 42.2661C118.567 41.6756 117.335 41.4887 116.342 41.7054C115.386 41.8491 114.653 42.4331 114.144 43.4572L79.4291 113.134C77.206 117.597 75.6371 121.795 74.7223 125.728C73.8441 129.588 73.5166 133.231 73.7398 136.655C73.9629 140.079 74.7246 143.148 76.0245 145.862C77.3246 148.577 79.1114 150.96 81.3848 153.011C83.5913 155.037 86.2354 156.667 89.3177 157.901Z"
      fill="#C60000"/>
    <path
      d="M66.0351 150.66C65.0557 150.652 64.1579 150.293 63.3416 149.558C62.607 148.741 62.1173 147.762 61.8724 146.62C61.6275 145.478 61.7907 144.456 62.3621 143.559L121.743 45.735H69.5857C68.3614 45.735 67.4636 45.3677 66.8922 44.6331C66.4024 43.8985 65.891 41.531 66.7406 39.9492C67.8235 37.9331 68.6281 37.3223 69.5919 36.7264C71.1998 35.668 75.6717 35.7594 76.1516 35.761L132.394 35.9404C133.944 35.9453 136.721 35.6667 137.537 37.2993C138.435 38.9317 136.882 41.5314 136.067 42.9191L76.8092 140.865H134.598C135.822 140.865 137.18 141.225 137.669 141.96C137.646 142.998 137.414 144.204 136.668 145.76C135.881 147.402 135.528 147.729 134.958 148.464C134.469 149.199 132.602 151.244 132.463 151.242L66.0351 150.66Z"
      fill="#141414"/>
  </g>
</svg>
