<?xml version="1.0" encoding="UTF-8" standalone="no"?>
<svg
   width="200"
   height="200"
   viewBox="0 0 200 200"
   fill="none"
   version="1.1"
   id="svg3"
   sodipodi:docname="logo.svg"
   inkscape:version="1.4.3 (0d15f75042, 2025-12-25)"
   inkscape:export-filename="logo.svg"
   inkscape:export-xdpi="1920"
   inkscape:export-ydpi="1920"
   xmlns:inkscape="http://www.inkscape.org/namespaces/inkscape"
   xmlns:sodipodi="http://sodipodi.sourceforge.net/DTD/sodipodi-0.dtd"
   xmlns="http://www.w3.org/2000/svg"
   xmlns:svg="http://www.w3.org/2000/svg">
  <defs
     id="defs3" />
  <sodipodi:namedview
     id="namedview3"
     pagecolor="#ffffff"
     bordercolor="#000000"
     borderopacity="0.25"
     inkscape:showpageshadow="2"
     inkscape:pageopacity="0.0"
     inkscape:pagecheckerboard="0"
     inkscape:deskcolor="#d1d1d1"
     inkscape:zoom="3.2184089"
     inkscape:cx="52.355063"
     inkscape:cy="91.349487"
     inkscape:window-width="1920"
     inkscape:window-height="1015"
     inkscape:window-x="0"
     inkscape:window-y="0"
     inkscape:window-maximized="1"
     inkscape:current-layer="g3">
    <inkscape:page
       x="0"
       y="0"
       width="200"
       height="200"
       id="page2"
       margin="0"
       bleed="0" />
  </sodipodi:namedview>
  <rect
     width="200"
     height="200"
     fill="#d9d9d9"
     id="rect1"
     x="0"
     y="0" />
  <g
     id="g3"
     transform="matrix(1.9130161,0,0,1.9130161,29.214635,-9.0494922)">
    <path
       d="m 45.031694,89.077382 c -3.11648,1.067898 -6.262781,1.563589 -9.440053,1.489291 -3.177042,-0.07319 -6.235711,-0.716368 -9.176006,-1.928426 -2.967366,-1.255307 -5.792039,-3.087256 -8.474139,-5.496956 -0.574317,-0.543375 -0.775163,-1.055699 -0.60265,-1.536974 0.145559,-0.525632 0.553557,-1.009125 1.22411,-1.449369 0.545986,-0.451334 1.124777,-0.75518 1.736145,-0.911539 0.66,-0.174102 2.806138,-1.957901 3.456274,-1.387905 2.042286,1.57246 2.823192,4.195994 4.680691,5.0909 1.906135,0.879379 3.617103,1.938121 5.776615,1.991351 2.132328,0.0088 4.586054,-0.461315 7.361865,-1.411666 1.460168,-0.500126 2.739107,-1.149958 3.836814,-1.948386 1.070178,-0.841677 1.924715,-1.794245 2.562463,-2.857708 0.658396,-1.124452 1.024297,-2.385304 1.098853,-3.784771 0.04703,-1.441606 -0.2122,-3.044007 -0.777685,-4.804984 -0.564336,-1.760978 -1.498019,-3.686077 -2.799899,-5.776406 l -25.982974,-36.415521 0.02692,-0.300461 0.05585,-0.153969 c 0.93871,0.07396 0.687908,-2.633087 1.060813,-3.077656 0.345714,-0.48826 0.568896,-0.144385 1.639992,-0.511218 1.224647,2.011311 3.05895,0.279383 3.784332,0.400699 0.698196,0.07785 -2.102297,-0.03468 -1.722745,0.574898 l 27.564616,37.28201 c 1.654016,2.655882 3.06647,5.023448 3.761568,7.374375 0.668719,2.30657 1.305715,4.792223 1.168071,6.847066 -0.138789,2.053735 -0.333947,3.66446 -1.261893,5.303456 -0.929093,1.638996 -2.824842,3.11664 -4.468535,4.366402 -1.59437,1.233129 -3.850416,2.267202 -6.089416,3.033471 z"
       fill="#a30000"
       id="path1-6"
       sodipodi:nodetypes="cccccccccccccccccccccccccccccc"
       style="stroke-width:1.12782" />
    <path
       d="m 31.298206,87.259414 c 2.2417,0.898 4.5003,1.298 6.7756,1.201 2.276,-0.098 4.461,-0.69 6.558,-1.777 2.115,-1.125 4.123,-2.752 6.023,-4.88 0.407,-0.48 0.547,-0.928 0.419,-1.347 -0.109,-0.456 -0.405,-0.873 -0.889,-1.25 -0.396,-0.388 -0.813,-0.647 -1.252,-0.777 -0.475,-0.144 -0.942,0.035 -1.403,0.539 -1.45,1.392 -2.836,2.488 -4.159,3.288 -1.358,0.786 -2.811,1.213 -4.357,1.282 -1.528,0.03 -3.2901,-0.355 -5.2865,-1.154 -1.0508,-0.421 -1.9729,-0.974 -2.7661,-1.659 -0.7743,-0.723 -1.3943,-1.545 -1.86,-2.465 -0.4818,-0.973 -0.7552,-2.069 -0.8202,-3.288 -0.0461,-1.257 0.1257,-2.656 0.5154,-4.197 0.3897,-1.541 1.0417,-3.229 1.9562,-5.065 l 18.1462,-36.4225 c 0.267,-0.5354 0.265,-0.995 -0.006,-1.3787 -0.252,-0.4221 -0.764,-0.7874 -1.534,-1.0961 -0.771,-0.3087 -1.415,-0.4064 -1.934,-0.2931 -0.5,0.0751 -0.883,0.3804 -1.149,0.9157 l -18.1467,36.4227 c -1.1621,2.333 -1.9822,4.527 -2.4604,6.583 -0.4591,2.018 -0.6303,3.922 -0.5136,5.712 0.1166,1.79 0.5148,3.394 1.1943,4.813 0.6796,1.419 1.6136,2.665 2.802,3.737 1.1534,1.059 2.5356,1.911 4.1468,2.556 z"
       fill="#C60000"
       id="path2-7"
       style="fill:#c60000;fill-opacity:1" />
    <path
       d="m 19.127606,83.474414 c -0.51198,-0.0045 -0.9813,-0.192 -1.408,-0.576 -0.384,-0.427 -0.64,-0.939 -0.768,-1.536 -0.128,-0.597 -0.0427,-1.131 0.256,-1.6 l 31.0402,-51.136 h -27.2642 c -0.64,0 -1.1093,-0.192 -1.408,-0.576 -0.256,-0.384 -0.523331,-1.621571 -0.07921,-2.448447 0.566045,-1.05387 0.986658,-1.373192 1.490462,-1.684647 0.840514,-0.553291 3.178138,-0.505483 3.428987,-0.504683 l 29.399958,0.09378 c 0.809996,0.0026 2.261562,-0.143048 2.688562,0.710352 0.469,0.8533 -0.342562,2.212248 -0.768562,2.937648 l -30.9762,51.2 h 30.2082 c 0.64,0 1.349472,0.188094 1.605472,0.572094 -0.01218,0.542502 -0.133397,1.173304 -0.523162,1.986435 -0.411391,0.858245 -0.59592,1.029453 -0.89392,1.413453 -0.256,0.384 -1.23193,1.453045 -1.304489,1.452409 z"
       fill="black"
       id="path3-5"
       style="fill:#141414;fill-opacity:1"
       sodipodi:nodetypes="scsccscscsscccscscss" />
  </g>
</svg>
